<?xml version="1.0" standalone="no"?><!DOCTYPE svg PUBLIC "-//W3C//DTD SVG 1.1//EN" "http://www.w3.org/Graphics/SVG/1.1/DTD/svg11.dtd"><svg t="1605106568582" class="icon" viewBox="0 0 1024 1024" version="1.1" xmlns="http://www.w3.org/2000/svg" p-id="2431" width="44" height="44" xmlns:xlink="http://www.w3.org/1999/xlink"><defs><style type="text/css"></style></defs><path d="M874.752 234.666667A106.56 106.56 0 0 1 981.333333 341.397333v163.797334c0 55.616-42.197333 107.562667-96.725333 118.976l-471.722667 98.794666a106.389333 106.389333 0 0 1-126.186666-82.794666L178.730667 128H85.333333a42.666667 42.666667 0 1 1 0-85.333333h128a42.666667 42.666667 0 0 1 41.749334 33.856L288.426667 234.666667h586.325333zM370.261333 622.933333a21.056 21.056 0 0 0 25.130667 16.512l471.722667-98.794666C882.133333 537.514667 896 520.405333 896 505.173333v-163.797333A21.226667 21.226667 0 0 0 874.752 320H308.266667l61.973333 302.933333zM352 981.333333a96 96 0 1 1 0-192 96 96 0 0 1 0 192z m426.666667 0a96 96 0 1 1 0-192 96 96 0 0 1 0 192z" fill="#515151" p-id="2432"></path></svg>